<?xml version="1.0" encoding="UTF-8" standalone="no"?>
<svg width="34px" height="37px" viewBox="0 0 34 37" version="1.1" xmlns="http://www.w3.org/2000/svg" xmlns:xlink="http://www.w3.org/1999/xlink" xmlns:sketch="http://www.bohemiancoding.com/sketch/ns">
    <!-- Generator: Sketch 3.3.3 (12081) - http://www.bohemiancoding.com/sketch -->
    <title>Fill 196</title>
    <desc>Created with Sketch.</desc>
    <defs></defs>
    <g id="Page-1" stroke="none" stroke-width="1" fill="none" fill-rule="evenodd" sketch:type="MSPage">
        <g id="1-Icons" sketch:type="MSArtboardGroup" transform="translate(-544.000000, -1205.000000)" fill="#231F1F">
            <g id="Icons" sketch:type="MSLayerGroup" transform="translate(112.000000, 84.500000)">
                <path d="M459.443,1132.621 L462.443,1132.621 C463.264,1132.621 463.969,1132.916 464.559,1133.506 C465.148,1134.096 465.443,1134.801 465.443,1135.621 L465.443,1153.621 C465.443,1154.441 465.148,1155.146 464.559,1155.736 C463.969,1156.326 463.264,1156.621 462.443,1156.621 L435.443,1156.621 C434.623,1156.621 433.918,1156.326 433.328,1155.736 C432.738,1155.146 432.443,1154.441 432.443,1153.621 L432.443,1135.621 C432.443,1134.801 432.738,1134.096 433.328,1133.506 C433.918,1132.916 434.623,1132.621 435.443,1132.621 L438.443,1132.621 L438.443,1126.621 C438.443,1124.98 439.033,1123.57 440.213,1122.391 C441.393,1121.211 442.803,1120.621 444.443,1120.621 L453.443,1120.621 C455.083,1120.621 456.493,1121.211 457.674,1122.391 C458.853,1123.57 459.443,1124.98 459.443,1126.621 L459.443,1132.621 L459.443,1132.621 L459.443,1132.621 L459.443,1132.621 Z M444.443,1132.621 L453.443,1132.621 L453.443,1128.121 C453.443,1127.701 453.298,1127.346 453.008,1127.055 C452.719,1126.766 452.363,1126.621 451.943,1126.621 L445.943,1126.621 C445.523,1126.621 445.168,1126.766 444.879,1127.055 C444.588,1127.346 444.443,1127.701 444.443,1128.121 L444.443,1132.621 L444.443,1132.621 Z" id="Fill-196" sketch:type="MSShapeGroup"></path>
            </g>
        </g>
    </g>
</svg>